<?xml version="1.0" standalone="no"?>
<!DOCTYPE svg PUBLIC "-//W3C//DTD SVG 20010904//EN"
 "http://www.w3.org/TR/2001/REC-SVG-20010904/DTD/svg10.dtd">
<svg version="1.0" xmlns="http://www.w3.org/2000/svg"
 width="487.000000pt" height="141.000000pt" viewBox="0 0 487.000000 141.000000"
 preserveAspectRatio="xMidYMid meet">

<g transform="translate(0.000000,141.000000) scale(0.100000,-0.100000)"
fill="#000000" stroke="none">
<path d="M1160 785 c0 -362 2 -415 15 -415 13 0 15 53 15 415 0 362 -2 415
-15 415 -13 0 -15 -53 -15 -415z"/>
<path d="M1435 981 c-169 -78 -165 -324 7 -395 75 -32 191 -15 245 36 l22 20
-29 24 -29 25 -33 -21 c-95 -58 -212 6 -212 115 0 109 117 173 213 114 l34
-20 28 27 28 27 -24 19 c-64 50 -176 63 -250 29z"/>
<path d="M1880 984 c-46 -20 -98 -71 -116 -113 -17 -39 -18 -128 -3 -168 28
-74 119 -132 208 -133 79 0 128 18 176 67 111 111 66 299 -84 351 -47 16 -139
14 -181 -4z m193 -103 c29 -29 32 -37 32 -96 0 -59 -3 -67 -31 -96 -23 -23
-44 -33 -78 -36 -91 -11 -150 41 -150 132 0 90 51 138 142 132 44 -3 59 -9 85
-36z"/>
<path d="M2224 983 c4 -10 46 -107 93 -215 l86 -198 43 0 c40 0 45 3 62 38 35
68 162 368 162 381 0 8 -14 11 -42 9 l-43 -3 -64 -147 c-36 -82 -67 -148 -70
-148 -3 0 -34 67 -67 148 l-62 147 -52 3 c-47 3 -52 1 -46 -15z"/>
<path d="M2720 785 l0 -215 45 0 45 0 0 215 0 215 -45 0 -45 0 0 -215z"/>
<path d="M2920 785 l0 -218 128 5 c138 5 185 19 236 66 39 37 57 84 57 147 0
63 -18 110 -57 147 -51 47 -98 61 -236 66 l-128 5 0 -218z m260 117 c39 -21
70 -72 70 -117 0 -45 -31 -96 -70 -117 -24 -12 -56 -18 -102 -18 l-68 0 0 135
0 135 68 0 c46 0 78 -6 102 -18z"/>
<path d="M3600 960 l0 -40 45 0 45 0 0 -175 0 -175 45 0 45 0 0 215 0 215 -90
0 -90 0 0 -40z"/>
<path d="M3925 984 c-49 -24 -70 -62 -70 -122 0 -49 3 -57 37 -87 49 -45 111
-55 168 -27 40 19 40 19 40 0 0 -28 -29 -74 -57 -89 -27 -14 -76 -17 -115 -6
-24 6 -29 3 -44 -24 -22 -43 -9 -53 79 -57 131 -7 204 48 228 171 22 107 -20
211 -98 243 -43 18 -130 17 -168 -2z m143 -70 c28 -19 29 -65 2 -89 -65 -59
-171 24 -110 85 24 24 77 26 108 4z"/>
<path d="M3410 745 l0 -35 85 0 85 0 0 35 0 35 -85 0 -85 0 0 -35z"/>
<path d="M612 702 c-7 -19 10 -32 58 -43 68 -15 154 7 148 39 -3 13 -19 16
-102 16 -73 1 -100 -2 -104 -12z m177 -17 c-5 -5 -39 -10 -74 -10 -35 0 -69 5
-74 10 -7 7 18 10 74 10 56 0 81 -3 74 -10z"/>
</g>
</svg>
